<svg width="100" height="100" viewBox="0 0 100 100" fill="none" xmlns="http://www.w3.org/2000/svg">
<g clip-path="url(#clip0_168_161)">
<path fill-rule="evenodd" clip-rule="evenodd" d="M74.9804 37.7556L33.3304 16.9302C32.9723 16.7511 32.5803 16.77 32.2398 16.9793C31.8989 17.1902 31.7082 17.5342 31.7082 17.9347V78.9818C31.7082 80.2177 32.7171 81.2266 33.9522 81.2266H63.655C64.6889 81.2266 65.563 80.5537 65.8253 79.5541L76.1475 40.3344C76.4199 39.2961 75.9402 38.2357 74.9804 37.7556ZM59.7537 67.4986V67.7502H55.3056L47.4568 57.133H43.4288V67.7502H39.5674V40.5558H48.4215C50.5484 40.5558 52.3465 40.8914 53.8154 41.5635C55.2843 42.2343 56.3894 43.172 57.1315 44.3741C57.8727 45.5786 58.2438 46.9775 58.2438 48.5715C58.2438 49.8581 57.9991 51.0473 57.5085 52.1383C57.0192 53.2294 56.2839 54.1739 55.3056 54.9723C54.3257 55.7696 53.1083 56.3499 51.6547 56.7129L59.7537 67.4986ZM43.4288 53.9433H47.8339C49.9326 53.9433 51.5211 53.4881 52.598 52.5798C53.6749 51.6703 54.2134 50.3893 54.2134 48.7389C54.2134 47.1461 53.7172 45.9275 52.7243 45.0892C51.7307 44.2489 50.2687 43.8296 48.3382 43.8296H43.4288V53.9433Z" fill="url(#paint0_linear_168_161)"/>
</g>
<rect x="0.5" y="0.5" width="99" height="99" rx="7.5" stroke="url(#paint1_linear_168_161)"/>
<defs>
<linearGradient id="paint0_linear_168_161" x1="53.9657" y1="16.808" x2="53.9657" y2="81.2266" gradientUnits="userSpaceOnUse">
<stop offset="0.158654" stop-color="#7CC8A1"/>
<stop offset="1" stop-color="#3D624F"/>
</linearGradient>
<linearGradient id="paint1_linear_168_161" x1="50" y1="0" x2="50" y2="100" gradientUnits="userSpaceOnUse">
<stop stop-color="#7CC8A1"/>
<stop offset="0.346154" stop-color="#75BC98"/>
<stop offset="1" stop-color="#3D624F"/>
</linearGradient>
<clipPath id="clip0_168_161">
<rect width="100" height="100" rx="8" fill="white"/>
</clipPath>
</defs>
</svg>
